<svg width="75" height="60" viewBox="0 0 80 73" fill="none" xmlns="http://www.w3.org/2000/svg">
<circle cx="36.5" cy="36.5" r="34" fill="white" stroke="#83C5BE" stroke-width="5"/>
<g clip-path="url(#clip0)">
<path d="M78.8287 15.2857L73.9149 10.531C72.3893 9.05414 69.9536 9.09518 68.477 10.6221L42.3725 37.6084C40.8944 39.1354 38.2037 39.5161 36.3601 38.4597L27.1595 33.1869C25.3187 32.1305 22.9675 32.7678 21.9113 34.6111L18.5103 40.5441C17.4539 42.3875 18.0911 44.7375 19.9332 45.7936C19.9332 45.7936 42.2533 58.5684 42.2623 58.5503C42.2666 58.5428 47.3946 53.2529 53.8922 46.5501C62.9769 37.1786 74.7392 25.0449 78.9187 20.725C80.3953 19.197 80.3543 16.7613 78.8287 15.2857Z" fill="#83C5BE"/>
<path d="M78.8287 15.2857L73.9149 10.531C72.3893 9.05414 69.9536 9.09518 68.477 10.6221L42.3725 37.6084C40.8944 39.1354 38.2037 39.5161 36.3601 38.4597L27.1595 33.1869C25.3187 32.1305 22.9675 32.7678 21.9113 34.6111L18.5103 40.5441C17.4539 42.3875 18.0911 44.7375 19.9332 45.7936C19.9332 45.7936 42.2533 58.5684 42.2623 58.5503C42.2666 58.5428 47.3946 53.2529 53.8922 46.5501C62.9769 37.1786 74.7392 25.0449 78.9187 20.725C80.3953 19.197 80.3543 16.7613 78.8287 15.2857Z" stroke="black"/>
</g>
<defs>
<clipPath id="clip0">
<rect width="62" height="62" fill="white" transform="translate(18 3)"/>
</clipPath>
</defs>
</svg>
