<svg width="109" height="109" viewBox="0 0 109 109" fill="none" xmlns="http://www.w3.org/2000/svg">
<g clip-path="url(#clip0)">
<path d="M103.209 37.8593L106.675 34.394C108.173 32.8953 109 30.897 109 28.776C109 26.6505 108.173 24.6567 106.67 23.158L99.467 15.9549L103.128 12.2943C104.903 10.5185 104.903 7.64816 103.128 5.87237C101.352 4.09658 98.4815 4.09658 96.7057 5.87237L93.0451 9.53295L85.8466 2.33441C82.8446 -0.66763 77.6125 -0.672172 74.606 2.33441L71.1407 5.7997L69.9508 4.60979C66.9533 1.60774 61.7167 1.6032 58.7101 4.60979L56.0487 7.2712C52.9513 10.3686 52.9513 15.4099 56.0487 18.5118L70.0643 32.5274L32.5138 70.0779L18.4982 56.0442C15.4053 52.9467 10.3595 52.9558 7.26213 56.0442L4.60071 58.7056C3.09742 60.2089 2.27083 62.2072 2.27083 64.3282C2.27083 66.4537 3.09742 68.4474 4.60071 69.9462L5.79517 71.1407L2.32988 74.6059C0.826583 76.1047 0 78.103 0 80.224C0 82.3495 0.826583 84.3433 2.32988 85.842L9.53296 93.0451L5.87238 96.7057C4.09658 98.4815 4.09658 101.352 5.87238 103.128C6.758 104.013 7.92067 104.458 9.08333 104.458C10.246 104.458 11.4087 104.013 12.2943 103.128L15.9549 99.467L23.1534 106.666C24.6567 108.173 26.6505 109 28.776 109C30.897 109 32.8953 108.173 34.394 106.67L37.8593 103.205L39.0493 104.395C40.5525 105.898 42.5463 106.725 44.6718 106.725C46.7928 106.725 48.7911 105.898 50.2899 104.395L52.9513 101.733C56.0487 98.6359 56.0487 93.5947 52.9513 90.4927L38.9357 76.4771L76.4862 38.9266L90.5018 52.9422C92.0505 54.4909 94.0852 55.263 96.1198 55.263C98.1545 55.263 100.189 54.4864 101.738 52.9377L104.399 50.2762C105.903 48.7729 106.729 46.7792 106.729 44.6582C106.729 42.5327 105.903 40.5389 104.399 39.0402L103.209 37.8593Z" fill="#E29578"/>
</g>
<defs>
<clipPath id="clip0">
<rect width="109" height="109" fill="white"/>
</clipPath>
</defs>
</svg>
