<svg width="113" height="113" viewBox="0 0 113 113" fill="none" xmlns="http://www.w3.org/2000/svg">
<g clip-path="url(#clip0)">
<path d="M82.3587 26.065C75.4062 24.9436 68.4682 26.4281 62.5913 30.2528C64.3443 26.4011 67.0877 22.9176 70.7977 19.8465C75.2172 16.1881 79.4106 14.5209 79.4448 14.5075C81.1804 13.8365 82.0434 11.8855 81.3724 10.1499C80.7017 8.41452 78.7514 7.55113 77.0149 8.22229C76.4839 8.42754 68.1373 11.7462 61.5454 19.494C61.2982 18.2744 60.9532 17.0469 60.4862 15.8299C56.5639 5.61226 45.7885 0.523736 45.3319 0.312082C44.5051 -0.0708369 43.5585 -0.102618 42.708 0.223581C41.8576 0.550221 41.1754 1.20725 40.8174 2.04482C40.6194 2.50807 36.0169 13.4995 39.9392 23.7172C40.2928 24.6379 40.7024 25.5163 41.1547 26.3539C37.7472 25.6004 34.1963 25.4912 30.6415 26.0648C15.0528 28.5801 4.35446 43.6261 6.79323 59.6059C8.52905 70.9802 11.0667 80.7496 14.3366 88.6419C18.0451 97.5941 22.7291 104.176 28.2583 108.205C32.6364 111.396 37.5133 113 42.8057 113C44.2697 113 45.7662 112.877 47.292 112.631C50.8128 112.063 53.8971 110.772 56.5001 108.783C59.1031 110.772 62.1876 112.063 65.7083 112.631C72.748 113.767 79.1524 112.278 84.7417 108.205C90.2709 104.176 94.9551 97.5943 98.6634 88.6419C101.933 80.7492 104.471 70.98 106.207 59.6059C108.646 43.6261 97.9472 28.5801 82.3587 26.065ZM45.8669 8.43129C48.6561 10.3611 52.4365 13.6626 54.1955 18.2446C55.9435 22.7979 55.3383 27.8028 54.5588 31.1158C51.7698 29.1862 47.9894 25.8847 46.2304 21.3025C44.4822 16.7494 45.0874 11.7447 45.8669 8.43129ZM99.5458 58.5893C96.1209 81.0323 89.6298 96.3061 80.7734 102.759C76.6324 105.777 72.0555 106.83 66.7811 105.979C63.5487 105.457 60.9954 104.14 58.9746 101.953C58.3368 101.263 57.4396 100.87 56.4997 100.87C55.5597 100.87 54.6625 101.263 54.0247 101.953C52.0042 104.14 49.4506 105.457 46.2182 105.979C40.9439 106.829 36.3672 105.777 32.2259 102.759C23.3695 96.3061 16.8785 81.0323 13.4536 58.5893C11.5708 46.2516 19.7626 34.6455 31.7141 32.7174C32.8609 32.5323 34.0079 32.4409 35.1462 32.4409C39.7989 32.4409 44.3114 33.9695 48.1267 36.8847C53.0563 40.6515 59.9424 40.6515 64.8723 36.8847C69.6213 33.2562 75.4505 31.7757 81.2848 32.7174C93.2367 34.6457 101.429 46.2518 99.5458 58.5893Z" fill="#E1AD9C"/>
</g>
<defs>
<clipPath id="clip0">
<rect width="113" height="113" fill="white"/>
</clipPath>
</defs>
</svg>
