<svg width="80" height="80" viewBox="0 0 199 199" fill="none" xmlns="http://www.w3.org/2000/svg">
<g clip-path="url(#clip0)">
<path d="M99.4981 0.00195312C74.0048 0.00195312 48.5135 9.7024 29.1088 29.1071C-9.70613 67.922 -9.70238 131.074 29.1126 169.891C48.5154 189.298 74.0067 198.998 99.4981 198.998C124.989 198.998 150.481 189.294 169.891 169.88C208.704 131.071 208.7 67.9239 169.895 29.1164C150.483 9.70616 124.989 0.00195312 99.4981 0.00195312ZM159.031 159.029C142.617 175.443 121.059 183.648 99.4981 183.652C77.9394 183.652 56.3808 175.447 39.9669 159.037C35.8616 154.932 32.2723 150.505 29.1951 145.841C7.65149 113.173 11.2446 68.6894 39.9669 39.9652C56.3808 23.5532 77.9394 15.3482 99.4981 15.3482C121.057 15.3482 142.615 23.5532 159.031 39.9671C191.859 72.7929 191.855 126.207 159.031 159.029ZM46.322 98.1548C44.0479 96.0289 43.9316 92.464 46.0555 90.188C48.1795 87.9121 51.7182 87.7657 54.0242 89.9197C60.124 95.648 66.3871 90.3738 67.0813 89.7546C69.1546 87.8971 72.2242 87.8558 74.3369 89.5313C74.5865 89.7264 74.8229 89.9497 75.0424 90.1955C77.1176 92.5146 76.9206 96.0777 74.6015 98.1548C69.6031 102.63 57.3246 108.446 46.322 98.1548ZM152.922 90.1299C154.995 92.449 154.8 96.012 152.481 98.0891C147.482 102.564 135.204 108.379 124.201 98.0891C121.927 95.9633 121.813 92.3983 123.935 90.1224C126.057 87.8464 129.598 87.7 131.904 89.854C138.003 95.5824 144.267 90.3081 144.961 89.6889C147.032 87.8314 150.104 87.7901 152.216 89.4656C152.466 89.6608 152.7 89.8841 152.922 90.1299ZM144.507 148.852C145.741 151.706 144.43 155.02 141.574 156.254C138.722 157.493 135.412 156.177 134.178 153.322C128.746 140.773 115.919 132.658 101.489 132.658C86.728 132.658 73.821 140.764 68.6105 153.31C67.7117 155.47 65.6159 156.782 63.4113 156.782C62.6927 156.782 61.9609 156.645 61.2554 156.352C58.3847 155.157 57.0244 151.862 58.2158 148.993C65.1787 132.232 82.1649 121.406 101.491 121.406C120.411 121.404 137.298 132.178 144.507 148.852Z" fill="#E29578"/>
</g>
<defs>
<clipPath id="clip0">
<rect width="199" height="199" fill="white"/>
</clipPath>
</defs>
</svg>
