<svg width="80" height="80" viewBox="0 0 209 209" fill="none" xmlns="http://www.w3.org/2000/svg">
<path d="M104.395 0C46.7115 0 0 46.8158 0 104.5C0 162.184 46.7115 208.999 104.395 208.999C162.184 208.999 209 162.184 209 104.5C209 46.8158 162.184 0 104.395 0ZM104.5 188.1C58.3109 188.1 20.8997 150.689 20.8997 104.5C20.8997 58.3105 58.3109 20.9001 104.5 20.9001C150.689 20.9001 188.1 58.311 188.1 104.5C188.1 150.689 150.689 188.1 104.5 188.1Z" fill="#E1AD9C"/>
<path d="M135.85 125.4H73.1498V141.075H135.85V125.4Z" fill="#E29578"/>
<path d="M83.6001 78.3749C83.6001 69.7013 76.5988 62.7 67.9251 62.7C59.2515 62.7 52.2501 69.7013 52.2501 78.3749C52.2501 87.0486 59.2515 94.0499 67.9251 94.0499C76.5988 94.0499 83.6001 87.0486 83.6001 78.3749Z" fill="#E1AD9C"/>
<path d="M141.075 62.7C132.401 62.7 125.4 69.7013 125.4 78.3749C125.4 87.0486 132.401 94.0499 141.075 94.0499C149.749 94.0499 156.75 87.0486 156.75 78.3749C156.75 69.7013 149.749 62.7 141.075 62.7Z" fill="#E1AD9C"/>
</svg>
