<svg width="80" height="80" viewBox="0 0 195 195" fill="none" xmlns="http://www.w3.org/2000/svg">
<path d="M166.443 28.5568C148.027 10.1419 123.543 0 97.5 0C71.4568 0 46.9725 10.1419 28.5568 28.5568C10.1419 46.9725 0 71.4568 0 97.5C0 123.543 10.1419 148.027 28.5568 166.443C46.9725 184.858 71.4568 195 97.5 195C123.543 195 148.027 184.858 166.443 166.443C184.858 148.027 195 123.543 195 97.5C195 71.4568 184.858 46.9725 166.443 28.5568ZM158.364 158.364C142.106 174.621 120.491 183.574 97.5 183.574C74.5087 183.574 52.8937 174.621 36.6364 158.364C20.379 142.106 11.4258 120.491 11.4258 97.5C11.4258 74.5087 20.379 52.8937 36.6364 36.6364C52.8937 20.379 74.5087 11.4258 97.5 11.4258C120.491 11.4258 142.106 20.379 158.364 36.6364C174.621 52.8937 183.574 74.5087 183.574 97.5C183.574 120.491 174.621 142.106 158.364 158.364Z" fill="#E1AD9C"/>
<path d="M66.8816 59.5161C71.8297 59.5161 75.8554 63.5418 75.8554 68.4899H87.2812C87.2812 57.2416 78.1299 48.0903 66.8816 48.0903C55.6333 48.0903 46.4816 57.2416 46.4816 68.4899H57.9074C57.9074 63.5418 61.9331 59.5161 66.8816 59.5161Z" fill="#E1AD9C"/>
<path d="M128.118 59.5161C133.067 59.5161 137.093 63.5418 137.093 68.4899H148.518C148.518 57.2416 139.367 48.0903 128.118 48.0903C116.87 48.0903 107.719 57.2416 107.719 68.4899H119.145C119.145 63.5418 123.17 59.5161 128.118 59.5161Z" fill="#E1AD9C"/>
<path d="M38.3541 104.359C38.3541 136.973 64.887 163.505 97.5 163.505C130.113 163.505 156.646 136.973 156.646 104.359V91.7871H38.3541V104.359ZM49.7798 103.213H145.22V104.359C145.22 130.672 123.813 152.079 97.5 152.079C71.1872 152.079 49.7798 130.672 49.7798 104.359V103.213Z" fill="#E1AD9C"/>
</svg>
