<svg width="80" height="80" viewBox="0 0 209 209" fill="none" xmlns="http://www.w3.org/2000/svg">
<path d="M104.5 0C46.8787 0 0 46.8787 0 104.5C0 162.121 46.8787 209 104.5 209C162.121 209 209 162.121 209 104.5C209 46.8787 162.122 0 104.5 0ZM104.5 190C57.3553 190 19 151.645 19 104.5C19 57.3547 57.3553 19 104.5 19C151.645 19 190 57.3553 190 104.5C190 151.645 151.645 190 104.5 190Z" fill="#E29578"/>
<path d="M104.499 113.888C104.499 113.888 104.5 113.888 104.499 113.888C89.782 113.888 75.9443 119.62 65.538 130.027C61.8279 133.736 61.8279 139.751 65.538 143.461C67.393 145.316 69.8244 146.244 72.2557 146.244C74.6871 146.244 77.1185 145.316 78.9729 143.461C85.7913 136.643 94.8569 132.889 104.499 132.889C114.142 132.889 123.207 136.644 130.026 143.461C133.735 147.171 139.751 147.171 143.461 143.461C147.171 139.752 147.171 133.737 143.461 130.027C133.054 119.62 119.217 113.888 104.499 113.888Z" fill="#E29578"/>
<path d="M72.922 93.1887C75.2843 90.8327 76.6333 87.5647 76.6333 84.2333C76.6333 80.902 75.2843 77.634 72.922 75.2774C70.566 72.922 67.298 71.5667 63.9667 71.5667C60.629 71.5667 57.3673 72.922 55.0113 75.2774C52.6553 77.634 51.3 80.902 51.3 84.2333C51.3 87.5647 52.6553 90.8327 55.0113 93.1887C57.3673 95.5447 60.6353 96.9 63.9667 96.9C67.298 96.9 70.566 95.5447 72.922 93.1887Z" fill="#E29578"/>
<path d="M145.033 71.5667C141.696 71.5667 138.434 72.922 136.078 75.2774C133.716 77.634 132.367 80.902 132.367 84.2333C132.367 87.5647 133.716 90.8327 136.078 93.1887C138.434 95.5447 141.702 96.9 145.033 96.9C148.365 96.9 151.633 95.544 153.989 93.1887C156.351 90.8327 157.7 87.5647 157.7 84.2333C157.7 80.902 156.351 77.634 153.989 75.2774C151.633 72.922 148.365 71.5667 145.033 71.5667Z" fill="#E29578"/>
</svg>
