<svg width="80" height="80" viewBox="0 0 214 205" fill="none" xmlns="http://www.w3.org/2000/svg">
<g clip-path="url(#clip0)">
<path d="M107 205C78.4193 205 51.5493 194.338 31.3393 174.979C11.1301 155.619 0 129.879 0 102.5C0 75.1213 11.1301 49.3814 31.3393 30.0213C51.5493 10.662 78.4193 0 107 0C135.581 0 162.451 10.662 182.661 30.0213C202.87 49.3814 214 75.1213 214 102.5C214 129.879 202.87 155.619 182.661 174.979C162.451 194.338 135.581 205 107 205ZM107 16.0156C57.2187 16.0156 16.7188 54.8123 16.7188 102.5C16.7188 150.188 57.2187 188.984 107 188.984C156.781 188.984 197.281 150.188 197.281 102.5C197.281 54.8123 156.781 16.0156 107 16.0156ZM146.179 120.192C142.284 117.818 137.117 118.918 134.639 122.649C134.536 122.804 124.133 138.159 106.582 138.159C89.0315 138.159 78.6283 122.804 78.525 122.649C76.0465 118.918 70.88 117.818 66.9849 120.192C63.0899 122.567 61.9417 127.516 64.4203 131.247C65.0422 132.183 79.957 154.175 106.582 154.175C133.207 154.175 148.122 132.184 148.744 131.247C151.222 127.516 150.074 122.567 146.179 120.192ZM70.2188 66.0645C75.9896 66.0645 80.668 70.546 80.668 76.0742C80.668 81.6024 75.9896 86.084 70.2188 86.084C64.4479 86.084 59.7695 81.6024 59.7695 76.0742C59.7695 70.546 64.4479 66.0645 70.2188 66.0645ZM132.914 76.0742C132.914 81.6024 137.592 86.084 143.363 86.084C149.134 86.084 153.812 81.6024 153.812 76.0742C153.812 70.546 149.134 66.0645 143.363 66.0645C137.592 66.0645 132.914 70.546 132.914 76.0742Z" fill="#E29578"/>
</g>
<defs>
<clipPath id="clip0">
<rect width="214" height="205" fill="white"/>
</clipPath>
</defs>
</svg>
