<svg width="25" height="25" viewBox="0 0 45 45" fill="none" xmlns="http://www.w3.org/2000/svg">
<g clip-path="url(#clip0)">
<path d="M44.4844 21.2557C44.4839 21.2552 44.4835 21.2546 44.4829 21.2541L35.2979 12.1134C34.6098 11.4287 33.4969 11.4312 32.8119 12.1194C32.1271 12.8075 32.1297 13.9205 32.8178 14.6053L38.9846 20.7422H1.75781C0.786973 20.7422 0 21.5292 0 22.5C0 23.4708 0.786973 24.2578 1.75781 24.2578H38.9845L32.8179 30.3947C32.1298 31.0795 32.1272 32.1925 32.812 32.8806C33.497 33.5688 34.61 33.5712 35.298 32.8866L44.4829 23.7459C44.4835 23.7454 44.4839 23.7448 44.4845 23.7443C45.173 23.0571 45.1708 21.9406 44.4844 21.2557Z" fill="black"/>
</g>
<defs>
<clipPath id="clip0">
<rect width="45" height="45" fill="white"/>
</clipPath>
</defs>
</svg>
