<svg width="104" height="104" viewBox="0 0 104 104" fill="none" xmlns="http://www.w3.org/2000/svg">
<path d="M61.4421 33.5616C60.9699 33.1843 60.373 32.9984 59.7702 33.0405H50.651L59.2274 23.4653L60.0308 22.5751L60.4433 22.0539C60.5866 21.8526 60.7033 21.6335 60.7907 21.4026C60.8892 21.1537 60.9405 20.8885 60.9427 20.6209C61.0032 19.9877 60.6895 19.3771 60.1393 19.0576C59.4258 18.7303 58.6434 18.581 57.8595 18.6234H47.1987C46.6298 18.5846 46.0664 18.7545 45.6137 19.101C45.2397 19.4194 45.0315 19.8911 45.0491 20.3821C45.0491 21.1203 45.2953 21.5689 45.7874 21.7283C46.493 21.9288 47.2256 22.0168 47.9586 21.9888H54.9066C54.617 22.394 54.2409 22.8717 53.7776 23.4218L51.9972 25.4194L49.5871 28.0249L46.7862 31.1298C45.8164 32.2154 45.1794 32.9393 44.8754 33.301C44.1861 34.1383 44.2718 35.3686 45.0709 36.102C45.6435 36.5335 46.3535 36.7417 47.0684 36.6882H59.7485C60.3551 36.7357 60.9582 36.5579 61.4421 36.1888C61.8109 35.8666 62.0178 35.3974 62.0066 34.9078C62.0254 34.3978 61.8188 33.9055 61.4421 33.5616Z" fill="#006D77"/>
<path d="M80.6577 44.6566C80.2777 44.3527 79.7965 44.2053 79.3115 44.2441H72.0161L78.8555 36.6013L79.5069 35.8848L79.9195 35.3854C80.0359 35.2247 80.1306 35.0497 80.2017 34.8643C80.284 34.6643 80.3282 34.451 80.332 34.2346C80.3865 33.7279 80.1404 33.2359 79.7023 32.9753C79.1316 32.7131 78.5057 32.5937 77.8785 32.6279H69.2803C68.8274 32.6027 68.3801 32.7414 68.021 33.0187C67.7208 33.2711 67.5528 33.6473 67.565 34.0392C67.565 34.6181 67.7605 34.9802 68.1513 35.1249C68.7164 35.2815 69.3026 35.3474 69.8883 35.3203H75.4467C75.2296 35.646 74.9256 36.0151 74.5348 36.471L73.1017 38.0778L71.2345 40.249L69.0632 42.7242C68.2816 43.5927 67.7678 44.1863 67.5216 44.5047C67.01 45.1609 67.0757 46.0973 67.6736 46.6759C68.1293 47.0149 68.6925 47.1769 69.2586 47.1319H79.3332C79.8147 47.1704 80.2935 47.0315 80.6794 46.741C80.9665 46.4808 81.125 46.1079 81.1136 45.7206C81.1237 45.3164 80.9573 44.9281 80.6577 44.6566Z" fill="#006D77"/>
<path d="M103.434 32.4543C102.962 32.077 102.365 31.8911 101.762 31.9332H92.5779L101.154 22.3579L101.958 21.4677L102.479 20.8381C102.622 20.6367 102.739 20.4176 102.826 20.1867C102.925 19.9378 102.976 19.6726 102.978 19.405C103.039 18.7718 102.725 18.1612 102.175 17.8417C101.461 17.5144 100.679 17.3654 99.895 17.4075H89.1256C88.5567 17.3687 87.9933 17.5386 87.5406 17.8852C87.1666 18.2035 86.9584 18.6752 86.976 19.1662C86.976 19.9044 87.2222 20.3531 87.7143 20.5124C88.4199 20.7129 89.1524 20.8009 89.8855 20.7729H96.8335C96.5439 21.1781 96.1677 21.6558 95.7045 22.2059L93.9023 24.2469L91.5574 26.8524L88.7565 29.9573C87.7867 31.0429 87.1497 31.7668 86.8458 32.1286C86.1564 32.9659 86.2421 34.1961 87.0412 34.9295C87.6138 35.361 88.3238 35.5692 89.0387 35.5157H101.697C102.31 35.5928 102.93 35.4378 103.434 35.0815C103.803 34.7593 104.01 34.2901 103.999 33.8004C104.017 33.2905 103.811 32.7981 103.434 32.4543Z" fill="#006D77"/>
<path d="M95.9433 69.0182C95.3248 68.3779 94.3781 68.1798 93.5549 68.5188C70.0218 78.2606 43.047 67.0809 33.3048 43.5475C28.3579 31.5972 28.6565 18.1186 34.1277 6.39925C34.6404 5.31525 34.1771 4.02091 33.0931 3.50823C32.5368 3.24496 31.8946 3.23058 31.3268 3.46806C5.52665 14.0662 -6.79711 43.573 3.80105 69.3732C14.3992 95.1733 43.906 107.497 69.7064 96.8989C81.4735 92.0652 90.9831 82.969 96.3344 71.428C96.7108 70.6208 96.5559 69.6652 95.9433 69.0182ZM50.5424 96.3759C25.0364 96.3716 4.3634 75.6915 4.36774 50.1855C4.37046 33.4376 13.4403 18.0038 28.07 9.85154C26.3376 14.9936 25.4574 20.3843 25.4644 25.8102C25.4658 53.7144 48.0878 76.3342 75.9919 76.3328C80.6685 76.3326 85.3223 75.6831 89.8204 74.4029C81.4 88.018 66.5508 96.3249 50.5424 96.3759Z" fill="#006D77"/>
</svg>
