<svg width="60" height="60" viewBox="0 0 93 93" fill="none" xmlns="http://www.w3.org/2000/svg">
<circle cx="46.5" cy="46.5" r="43" stroke="#006D77" stroke-width="7"/>
<path d="M42.9351 46.0264H45.9893C47.9082 45.9971 49.417 45.4917 50.5156 44.5103C51.6143 43.5288 52.1636 42.2031 52.1636 40.5332C52.1636 36.7832 50.2959 34.9082 46.5605 34.9082C44.8027 34.9082 43.3965 35.4136 42.3418 36.4243C41.3018 37.4204 40.7817 38.7461 40.7817 40.4014H36.7168C36.7168 37.8672 37.6396 35.7651 39.4854 34.0952C41.3457 32.4106 43.7041 31.5684 46.5605 31.5684C49.5781 31.5684 51.9438 32.3667 53.6577 33.9634C55.3716 35.5601 56.2285 37.7793 56.2285 40.6211C56.2285 42.0127 55.7744 43.3604 54.8662 44.6641C53.9727 45.9678 52.7495 46.9419 51.1968 47.5864C52.9546 48.1431 54.3096 49.0659 55.2617 50.355C56.2285 51.644 56.7119 53.2188 56.7119 55.0791C56.7119 57.9502 55.7744 60.228 53.8994 61.9126C52.0244 63.5972 49.5854 64.4395 46.5825 64.4395C43.5796 64.4395 41.1333 63.6265 39.2437 62.0005C37.3687 60.3745 36.4312 58.2285 36.4312 55.5625H40.5181C40.5181 57.2471 41.0674 58.5947 42.166 59.6055C43.2646 60.6162 44.7368 61.1216 46.5825 61.1216C48.5454 61.1216 50.0469 60.6089 51.0869 59.5835C52.127 58.5581 52.647 57.0859 52.647 55.167C52.647 53.3066 52.0757 51.8784 50.9331 50.8823C49.7905 49.8862 48.1426 49.3735 45.9893 49.3442H42.9351V46.0264Z" fill="#006D77"/>
</svg>
