<svg width="60" height="60" viewBox="0 0 93 93" fill="none" xmlns="http://www.w3.org/2000/svg">
<circle cx="46.5" cy="46.5" r="43" fill="#FFE6DE" stroke="#46B1C9" stroke-width="7"/>
<path d="M56.9863 62H36.0244V59.0776L47.0986 46.7729C48.7393 44.9126 49.8672 43.4038 50.4824 42.2466C51.1123 41.0747 51.4272 39.8662 51.4272 38.6211C51.4272 36.9512 50.9219 35.5815 49.9111 34.5122C48.9004 33.4429 47.5527 32.9082 45.8682 32.9082C43.8467 32.9082 42.272 33.4868 41.144 34.644C40.0308 35.7866 39.4741 37.3833 39.4741 39.4341H35.4092C35.4092 36.4897 36.354 34.1094 38.2437 32.293C40.1479 30.4766 42.6895 29.5684 45.8682 29.5684C48.8418 29.5684 51.1929 30.3521 52.9214 31.9194C54.6499 33.4722 55.5142 35.5449 55.5142 38.1377C55.5142 41.2871 53.5073 45.0371 49.4937 49.3877L40.9243 58.6821H56.9863V62Z" fill="#46B1C9"/>
</svg>
