<svg width="115" height="115" viewBox="0 0 115 115" fill="none" xmlns="http://www.w3.org/2000/svg">
<path d="M77.988 67.6548L61.9538 55.6292V31.1328C61.9538 28.6698 59.9628 26.6788 57.4998 26.6788C55.0367 26.6788 53.0458 28.6698 53.0458 31.1328V57.8564C53.0458 59.2593 53.705 60.5823 54.8274 61.4196L72.6429 74.7814C73.4446 75.3827 74.3801 75.6722 75.3108 75.6722C76.6693 75.6722 78.0055 75.0619 78.8785 73.8861C80.3576 71.9217 79.9567 69.1291 77.988 67.6548Z" fill="#46B1C9"/>
<path d="M57.5 0C25.7926 0 0 25.7926 0 57.5C0 89.2074 25.7926 115 57.5 115C89.2074 115 115 89.2074 115 57.5C115 25.7926 89.2074 0 57.5 0ZM57.5 106.092C30.7097 106.092 8.90778 84.2903 8.90778 57.5C8.90778 30.7097 30.7097 8.90778 57.5 8.90778C84.2948 8.90778 106.092 30.7097 106.092 57.5C106.092 84.2903 84.2903 106.092 57.5 106.092Z" fill="#46B1C9"/>
</svg>
